<svg width="321" height="99" viewBox="0 0 321 99" fill="none" xmlns="http://www.w3.org/2000/svg">
<g id="icon">
<path id="Rectangle 2" d="M0 0H271.5C298.838 0 321 22.1619 321 49.5C321 76.8381 298.838 99 271.5 99H0V0Z" fill="#009DE2"/>
<path id="Teamwork" d="M84.0511 36.08V39.48H74.4111V64H70.7711V39.48H61.1311V36.08H84.0511ZM105.904 53.8V55.08H90.4642C90.6776 56.9467 91.3709 58.4 92.5442 59.44C93.7176 60.48 95.4909 61 97.8642 61C100.264 61 102.478 60.3333 104.504 59H104.704V62.52C102.464 63.7733 99.8242 64.4 96.7842 64.4C93.7709 64.4 91.3442 63.48 89.5042 61.64C87.6909 59.7733 86.7842 57.2667 86.7842 54.12C86.7842 50.9467 87.5976 48.3333 89.2242 46.28C90.8509 44.2267 93.2242 43.2 96.3442 43.2C99.4642 43.2 101.838 44.2267 103.464 46.28C105.091 48.3333 105.904 50.84 105.904 53.8ZM90.4642 52.12H102.264C102.158 50.2 101.504 48.7467 100.304 47.76C99.1309 46.7733 97.8109 46.28 96.3442 46.28C94.8776 46.28 93.5576 46.7733 92.3842 47.76C91.2109 48.7467 90.5709 50.2 90.4642 52.12ZM111.157 44.72C113.477 43.7067 115.957 43.2 118.597 43.2C121.263 43.2 123.303 43.9733 124.717 45.52C126.13 47.0667 126.837 48.92 126.837 51.08V64H123.637L123.197 61.44H123.077C121.157 63.4133 118.69 64.4 115.677 64.4C113.863 64.4 112.317 63.8533 111.037 62.76C109.783 61.6667 109.157 60.1733 109.157 58.28C109.157 56.3867 109.93 54.8533 111.477 53.68C113.05 52.5067 115.343 51.92 118.357 51.92H123.197V51.6C123.197 49.84 122.757 48.5733 121.877 47.8C121.023 47.0267 119.53 46.64 117.397 46.64C115.263 46.64 113.263 47.0933 111.397 48H111.157V44.72ZM123.197 58.2V54.84H118.837C114.81 54.84 112.797 55.9067 112.797 58.04C112.797 60.1467 114.21 61.2 117.037 61.2C118.21 61.2 119.343 60.92 120.437 60.36C121.53 59.7733 122.45 59.0533 123.197 58.2ZM156.904 43.2C159.091 43.2 160.744 43.9733 161.864 45.52C163.011 47.0667 163.584 48.8533 163.584 50.88V64H159.944V51.6C159.944 49.8667 159.624 48.6 158.984 47.8C158.371 46.9733 157.331 46.56 155.864 46.56C153.571 46.56 151.651 47.84 150.104 50.4V64H146.464V51.6C146.464 49.8667 146.158 48.6 145.544 47.8C144.931 46.9733 143.878 46.56 142.384 46.56C140.091 46.56 138.171 47.84 136.624 50.4V64H132.984V43.6H136.184L136.624 46.16V46.76H136.704C138.411 44.3867 140.651 43.2 143.424 43.2C144.918 43.2 146.184 43.5867 147.224 44.36C148.291 45.1333 149.051 46.0933 149.504 47.24H149.624C151.251 44.5467 153.678 43.2 156.904 43.2ZM193.702 43.6H197.542L190.542 64H186.982L182.342 49.4H182.222L177.582 64H174.022L167.022 43.6H170.862L175.702 59.6H175.822L180.782 43.6H183.782L188.742 59.6H188.862L193.702 43.6ZM199.908 53.8C199.908 50.6267 200.842 48.0667 202.708 46.12C204.575 44.1733 207.042 43.2 210.108 43.2C213.202 43.2 215.682 44.1733 217.548 46.12C219.442 48.0667 220.388 50.6267 220.388 53.8C220.388 56.9733 219.442 59.5333 217.548 61.48C215.682 63.4267 213.202 64.4 210.108 64.4C207.042 64.4 204.575 63.4267 202.708 61.48C200.842 59.5333 199.908 56.9733 199.908 53.8ZM205.508 59.28C206.842 60.48 208.388 61.08 210.148 61.08C211.908 61.08 213.442 60.48 214.748 59.28C216.082 58.0533 216.748 56.2267 216.748 53.8C216.748 51.3467 216.082 49.52 214.748 48.32C213.442 47.12 211.908 46.52 210.148 46.52C208.388 46.52 206.842 47.12 205.508 48.32C204.202 49.52 203.548 51.3467 203.548 53.8C203.548 56.2267 204.202 58.0533 205.508 59.28ZM236.724 43.2H237.044V46.68H236.724C235.151 46.68 233.684 46.9867 232.324 47.6C230.964 48.2133 229.898 49.0667 229.124 50.16V64H225.484V43.6H228.684L229.124 46.16V46.76H229.204C231.124 44.3867 233.631 43.2 236.724 43.2ZM250.153 51.8L259.353 64H254.873L247.673 54.36H247.553L244.593 57.32V64H240.953V34.8H244.593V52.68H244.713L253.553 43.6H258.433L250.153 51.8Z" fill="white"/>
</g>
</svg>
