<svg width="636" height="598" viewBox="0 0 636 598" fill="none" xmlns="http://www.w3.org/2000/svg">
<g id="authentication 1" clip-path="url(#clip0)">
<path id="floor" opacity="0.18" d="M372.34 589.54C378.79 592.2 385.92 592.59 392.88 592.92C451.627 595.753 510.407 597.113 569.22 597C575.1 597 581.11 596.94 586.62 594.9C592.13 592.86 597.12 588.38 598.09 582.58C561.26 579.72 524.17 580 487.47 578.64C468.23 577.93 448.25 580.34 429.11 582.17C419.41 583.103 409.727 584.197 400.06 585.45C394 586.24 377.75 591.77 372.34 589.54Z" fill="#1D2741"/>
<g id="form">
<path id="Vector" opacity="0.22" d="M633.9 66.46V344.34C633.901 348.382 633.106 352.385 631.561 356.12C630.015 359.855 627.749 363.249 624.892 366.108C622.035 368.967 618.642 371.235 614.908 372.783C611.174 374.331 607.172 375.129 603.13 375.13H30.79C22.6256 375.125 14.7971 371.879 9.02403 366.106C3.25094 360.333 0.00529811 352.504 0 344.34H0V66.46C0.00794252 58.2964 3.25443 50.4695 9.02695 44.6969C14.7995 38.9244 22.6264 35.6779 30.79 35.67H603.13C611.29 35.6832 619.112 38.932 624.88 44.704C630.648 50.4759 633.892 58.2999 633.9 66.46V66.46Z" fill="url(#paint0_linear)"/>
<path id="Vector_2" d="M635.4 65.43V343.3C635.411 347.333 634.627 351.328 633.093 355.058C631.559 358.788 629.306 362.18 626.462 365.039C623.618 367.898 620.238 370.169 616.516 371.722C612.794 373.275 608.803 374.08 604.77 374.09H32.28C28.2379 374.093 24.2349 373.299 20.4995 371.755C16.7641 370.21 13.3694 367.945 10.5094 365.089C7.64935 362.233 5.3799 358.841 3.83064 355.107C2.28137 351.374 1.48262 347.372 1.48 343.33V343.33V65.43C1.49058 57.2646 4.73897 49.4366 10.5128 43.6628C16.2866 37.889 24.1146 34.6406 32.28 34.63H604.62C612.098 34.6313 619.32 37.3552 624.937 42.2927C630.553 47.2302 634.18 54.0436 635.14 61.46C635.317 62.7759 635.403 64.1023 635.4 65.43Z" fill="#69B9EB"/>
<path id="Vector_3" d="M635.4 65.43V343.3C635.411 347.333 634.627 351.328 633.093 355.058C631.559 358.788 629.306 362.18 626.462 365.039C623.618 367.898 620.238 370.169 616.516 371.722C612.794 373.275 608.803 374.08 604.77 374.09H32.28C28.2379 374.093 24.2349 373.299 20.4995 371.755C16.7641 370.21 13.3694 367.945 10.5094 365.089C7.64935 362.233 5.3799 358.841 3.83064 355.107C2.28137 351.374 1.48262 347.372 1.48 343.33V65.43C1.49058 57.2646 4.73897 49.4366 10.5128 43.6628C16.2866 37.889 24.1146 34.6406 32.28 34.63H604.62C612.098 34.6313 619.32 37.3552 624.937 42.2927C630.553 47.2302 634.18 54.0436 635.14 61.46C635.317 62.7759 635.403 64.1023 635.4 65.43Z" fill="url(#paint1_linear)"/>
<path id="Vector_4" d="M633.66 62.5H0.259995C1.22194 55.0827 4.85088 48.2692 10.4691 43.3318C16.0873 38.3945 23.3106 35.671 30.79 35.67H603.13C610.61 35.6689 617.834 38.3916 623.453 43.3294C629.072 48.2671 632.7 55.0818 633.66 62.5V62.5Z" fill="url(#paint2_linear)"/>
</g>
<g id="input">
<path id="Vector_5" d="M413.7 279.01H199.44C195.066 279.01 191.52 282.556 191.52 286.93V299.96C191.52 304.334 195.066 307.88 199.44 307.88H413.7C418.074 307.88 421.62 304.334 421.62 299.96V286.93C421.62 282.556 418.074 279.01 413.7 279.01Z" fill="white" stroke="#A0A0A0" stroke-width="0.88" stroke-miterlimit="10"/>
<path id="Vector_6" d="M210.28 300.12C213.754 300.12 216.57 297.304 216.57 293.83C216.57 290.356 213.754 287.54 210.28 287.54C206.806 287.54 203.99 290.356 203.99 293.83C203.99 297.304 206.806 300.12 210.28 300.12Z" fill="#69B9EB"/>
<path id="Vector_7" d="M229.85 300.12C233.324 300.12 236.14 297.304 236.14 293.83C236.14 290.356 233.324 287.54 229.85 287.54C226.376 287.54 223.56 290.356 223.56 293.83C223.56 297.304 226.376 300.12 229.85 300.12Z" fill="#69B9EB"/>
<path id="Vector_8" d="M249.43 300.12C252.904 300.12 255.72 297.304 255.72 293.83C255.72 290.356 252.904 287.54 249.43 287.54C245.956 287.54 243.14 290.356 243.14 293.83C243.14 297.304 245.956 300.12 249.43 300.12Z" fill="#69B9EB"/>
<path id="Vector_9" d="M269 300.12C272.474 300.12 275.29 297.304 275.29 293.83C275.29 290.356 272.474 287.54 269 287.54C265.526 287.54 262.71 290.356 262.71 293.83C262.71 297.304 265.526 300.12 269 300.12Z" fill="#69B9EB"/>
<path id="Vector_10" d="M437.15 292.11V288.79H439.77V286.65H437.15V285.05H439.77V282.91H434.52V292.11C432.925 292.436 431.508 293.342 430.543 294.654C429.578 295.965 429.135 297.588 429.298 299.208C429.462 300.828 430.221 302.329 431.429 303.421C432.637 304.513 434.207 305.117 435.835 305.117C437.463 305.117 439.033 304.513 440.241 303.421C441.449 302.329 442.208 300.828 442.372 299.208C442.535 297.588 442.092 295.965 441.127 294.654C440.162 293.342 438.745 292.436 437.15 292.11V292.11ZM435.84 303.11C434.936 303.112 434.052 302.846 433.299 302.345C432.547 301.845 431.959 301.132 431.612 300.298C431.264 299.464 431.172 298.545 431.346 297.658C431.52 296.771 431.954 295.956 432.591 295.316C433.229 294.675 434.043 294.238 434.929 294.06C435.815 293.882 436.734 293.97 437.57 294.314C438.405 294.658 439.12 295.242 439.624 295.993C440.128 296.743 440.398 297.626 440.4 298.53V298.53C440.4 299.741 439.92 300.903 439.066 301.762C438.211 302.62 437.051 303.105 435.84 303.11V303.11Z" fill="#69B9EB"/>
</g>
<g id="latch">
<path id="Vector_11" d="M345.64 125.83H280.02C273.525 125.83 268.26 131.095 268.26 137.59V203.21C268.26 209.705 273.525 214.97 280.02 214.97H345.64C352.135 214.97 357.4 209.705 357.4 203.21V137.59C357.4 131.095 352.135 125.83 345.64 125.83Z" fill="url(#paint3_linear)"/>
<path id="Vector_12" d="M346 125.83H285.11C278.819 125.83 273.72 130.929 273.72 137.22V203.58C273.72 209.871 278.819 214.97 285.11 214.97H346C352.291 214.97 357.39 209.871 357.39 203.58V137.22C357.39 130.929 352.291 125.83 346 125.83Z" fill="#69B9EB"/>
<path id="Vector_13" d="M341.22 169.7C341.17 175.098 338.992 180.258 335.159 184.059C331.326 187.86 326.148 189.995 320.75 190H316.34C315.537 189.997 314.759 189.724 314.131 189.225C313.503 188.725 313.061 188.029 312.878 187.247C312.694 186.466 312.779 185.646 313.118 184.919C313.458 184.192 314.033 183.6 314.75 183.24C315.245 182.999 315.789 182.872 316.34 182.87H318C319.753 182.87 321.489 182.525 323.109 181.854C324.729 181.183 326.2 180.2 327.44 178.96C328.68 177.72 329.663 176.249 330.334 174.629C331.005 173.009 331.35 171.273 331.35 169.52V169.52V169.23C331.23 165.706 329.74 162.369 327.196 159.927C324.652 157.486 321.256 156.135 317.73 156.16H315.73C314.956 156.16 314.213 155.852 313.665 155.305C313.118 154.757 312.81 154.014 312.81 153.24V153.24V152C312.81 151.226 313.118 150.483 313.665 149.935C314.213 149.388 314.956 149.08 315.73 149.08H320.42C331.73 149.07 341.3 158.35 341.22 169.7Z" fill="white"/>
<path id="Vector_14" opacity="0.26" d="M335.76 170.52C335.721 175.209 333.834 179.693 330.509 182.999C327.184 186.305 322.689 188.167 318 188.18H314.16C313.82 188.182 313.482 188.128 313.16 188.02C312.952 187.602 312.829 187.148 312.797 186.683C312.765 186.218 312.825 185.751 312.974 185.309C313.122 184.866 313.357 184.458 313.663 184.107C313.97 183.755 314.342 183.467 314.76 183.26V183.26C315.256 183.019 315.799 182.892 316.35 182.89H318C319.753 182.89 321.489 182.545 323.109 181.874C324.729 181.203 326.2 180.22 327.44 178.98C328.68 177.74 329.663 176.269 330.334 174.649C331.005 173.029 331.35 171.293 331.35 169.54V169.54V169.25C331.23 165.726 329.74 162.389 327.196 159.947C324.652 157.506 321.256 156.155 317.73 156.18H315.73C314.956 156.18 314.213 155.872 313.665 155.325C313.118 154.777 312.81 154.034 312.81 153.26V152.71C313.069 152.627 313.338 152.583 313.61 152.58H317.68C322.451 152.58 327.029 154.465 330.415 157.826C333.802 161.186 335.723 165.749 335.76 170.52V170.52Z" fill="url(#paint4_linear)"/>
</g>
<g id="lock">
<path id="Vector_15" d="M360.84 170.69L356.24 175.06L354.24 176.94C352.665 175.057 350.665 173.576 348.404 172.618C346.144 171.66 343.688 171.253 341.24 171.43C340.169 171.559 339.084 171.382 338.11 170.92C334.8 169.04 339.99 162.63 339.99 162.63C341.132 162.61 342.274 162.66 343.41 162.78H343.71L344.62 162.89C349 163.51 356 165.58 360.84 170.69Z" fill="white"/>
<path id="Vector_16" d="M330.69 165.47C330.69 165.47 332.03 169.06 330.36 174.54C330.36 174.54 324.03 181.05 329.43 191.4L333.89 196.17L328.7 201.28C325.469 198.785 322.96 195.475 321.431 191.689C319.902 187.904 319.408 183.779 320 179.74C321.18 170.92 330.69 165.47 330.69 165.47Z" fill="white"/>
<path id="Vector_17" d="M324.27 205.4L365.37 166.4L399.85 196.17L357.39 236.9L324.27 205.4Z" fill="#69B9EB"/>
<path id="Vector_18" d="M324.27 205.4L327 220.86L357.39 250.02V236.9L324.27 205.4Z" fill="url(#paint5_linear)"/>
<path id="Vector_19" d="M399.85 196.17V210.36L357.39 250.02V236.9L399.85 196.17Z" fill="url(#paint6_linear)"/>
<path id="Vector_20" opacity="0.26" d="M356.06 174.65L356.24 175.06L354.24 176.94C352.665 175.057 350.665 173.576 348.404 172.618C346.144 171.66 343.688 171.253 341.24 171.43C340.169 171.559 339.084 171.382 338.11 170.92L339.99 162.63C339.99 162.63 341.84 162.63 343.41 162.78H343.71C344.015 162.796 344.319 162.833 344.62 162.89C344.62 162.89 345.71 167.55 344.9 169.51C344.9 169.54 352.57 170.82 356.06 174.65Z" fill="url(#paint7_linear)"/>
</g>
<g id="guy">
<g id="body">
<path id="Vector_21" opacity="0.21" d="M462.6 262.72C462.182 268.898 462.518 275.103 463.6 281.2C464.28 284.97 465.19 289.12 463.25 292.44C462.25 294.24 460.45 295.5 458.84 296.83C448.62 305.23 442.71 317.7 433.98 327.64C433.4 328.456 432.561 329.052 431.6 329.33C430.61 329.394 429.628 329.115 428.82 328.54C423.504 325.472 419.036 321.128 415.82 315.9C414.25 313.34 412.82 310.42 410.12 309.11C405.12 306.65 399.06 311.88 398.51 317.45C397.96 323.02 400.95 328.26 403.84 333.05L417.21 355.23C421.28 361.99 425.57 368.98 432.21 373.23C436.807 376.028 441.968 377.77 447.32 378.33C454.9 379.33 462.59 378.83 470.22 378.24C484.167 377.16 498.083 375.773 511.97 374.08C516.73 373.5 522.14 372.46 524.55 368.33C526.17 365.55 525.95 362.12 525.67 358.92C524.69 347.327 523.69 335.737 522.67 324.15C522.12 317.58 521.3 310.44 516.67 305.76C513.9 302.98 510.02 301.4 507.56 298.33C505.801 295.87 504.668 293.017 504.26 290.02C501.89 277.52 504.16 264.09 499.26 252.32C498.26 249.94 496.92 247.58 494.71 246.25C492.681 245.2 490.398 244.74 488.12 244.92C477.17 245.23 463.4 250.45 462.6 262.72Z" fill="url(#paint8_linear)"/>
<path id="Vector_22" d="M463.69 410.83L451.38 500.49C450.863 504.265 451.257 508.109 452.53 511.7L474.53 576.48L487.39 572.48L477.69 508C477.481 506.664 477.569 505.298 477.95 504L494.64 446.36L501.9 576.36H513.77L524 448.1C527.46 426.66 521.12 410.83 521.12 410.83H463.69Z" fill="#3F3D56"/>
<path id="Vector_23" d="M526.78 387.09L514.6 308.63L512.9 299.07C512.9 299.07 535.64 312.07 542.16 334.81C550.69 364.66 526.78 387.09 526.78 387.09Z" fill="#68E1FD"/>
<path id="Vector_24" d="M526.78 387.09L514.6 308.63L512.9 299.07C512.9 299.07 535.64 312.07 542.16 334.81C550.69 364.66 526.78 387.09 526.78 387.09Z" fill="url(#paint9_linear)"/>
<path id="Vector_25" d="M539.28 368.83C548.51 350.58 530.28 318.83 530.28 318.83L514.58 308.64L516.35 297.31C516.35 297.31 541.67 299.9 544.14 335.65C545 347.16 544.1 361.38 539.28 368.83Z" fill="#69B9EB"/>
<path id="Vector_26" d="M408.83 307.57C407.98 304.69 406.5 301.26 403.5 301C404.306 303.627 404.186 306.451 403.16 309C396.62 306.58 395.1 297 388.57 294.52C387.57 295.58 388.13 297.31 388.75 298.63C389.89 301.09 391.037 303.55 392.19 306.01C390.66 303.6 389.03 301.26 387.3 299.01C386.79 298.32 385.91 297.57 385.19 298.01C384.47 298.45 384.73 299.38 384.99 300.1C386.13 303.3 387.43 306.45 388.86 309.53C387.255 306.835 385.418 304.285 383.37 301.91C382.03 302.24 382.31 304.22 382.89 305.47L387.18 314.61L383.74 309.61C382.63 309.72 382.8 311.42 383.34 312.4C387.95 320.639 395.159 327.119 403.84 330.83C405.6 331.58 407.64 332.2 409.37 331.39C416.81 328 410.27 312.51 408.83 307.57Z" fill="url(#paint10_linear)"/>
<path id="Vector_27" d="M526.78 331.84V393.36C526.78 400.9 525.55 407.03 518 407.03H465.28C457.76 407.03 457.47 400.96 457.42 393.45L457 351.64C457 351.64 445.62 371.91 436.54 369.94C427.46 367.97 400.54 330.86 400.54 330.86L414 319.6L436.58 342.24C436.58 342.24 440.21 333.99 445.49 315.52C450.77 297.05 467.9 297 467.9 297H513.74C530.29 297 526.78 331.84 526.78 331.84Z" fill="#69B9EB"/>
<path id="Vector_28" d="M526.78 338.77C526.78 338.77 534.7 349.9 526.78 361.03V338.77Z" fill="#3F3D56"/>
<path id="Vector_29" d="M521.1 406.64H463.69V410.83H521.1V406.64Z" fill="#68E1FD"/>
<path id="Vector_30" d="M521.1 406.64H463.69V410.83H521.1V406.64Z" fill="url(#paint11_linear)"/>
<path id="Vector_31" d="M499.81 255.16H483.24V297.29H499.81V255.16Z" fill="url(#paint12_linear)"/>
<path id="Vector_32" d="M499.82 250.54V297.3H491.08V294.45C491.075 292.778 490.408 291.176 489.226 289.994C488.044 288.812 486.442 288.145 484.77 288.14H484.26C480.096 288.14 476.103 286.486 473.158 283.542C470.214 280.597 468.56 276.604 468.56 272.44V272.44V250.54H499.82Z" fill="url(#paint13_linear)"/>
<path id="Vector_33" d="M468.56 255.16C468.56 255.16 454.06 247.25 459.25 238.59C464.44 229.93 472.9 235.38 472.9 235.38H500.9C500.9 235.38 504.11 234.88 505.35 240.32C506.59 245.76 499.91 279.53 499.91 279.53H486L484.22 270.75C484.22 270.75 486.99 267.75 486.74 264.56C486.763 263.963 486.58 263.376 486.221 262.898C485.862 262.42 485.35 262.081 484.77 261.936C484.19 261.792 483.578 261.852 483.037 262.106C482.497 262.359 482.06 262.792 481.8 263.33C480.55 265.55 481.05 256.15 476.6 255.16C473.955 254.55 471.205 254.55 468.56 255.16V255.16Z" fill="#3F3D56"/>
<path id="Vector_34" d="M496.11 297.21C496.11 297.21 489.68 305.63 480.77 305.63C471.86 305.63 445.9 331.1 444.16 338.77C442.42 346.44 436.57 342.24 436.57 342.24C436.57 342.24 440.2 333.99 445.48 315.52C450.76 297.05 467.9 297 467.9 297H491.2L496.11 297.21Z" fill="url(#paint14_linear)"/>
</g>
<g id="shoes">
<path id="Vector_35" d="M487.37 571.45L491.9 582.58L473.6 591.24L456.7 592.47C456.7 592.47 453.81 581.34 461.7 580.35C466.312 579.82 470.711 578.119 474.48 575.41L487.37 571.45Z" fill="url(#paint15_linear)"/>
<path id="Vector_36" d="M487.37 571.45L491.9 582.58L473.6 591.24L456.7 592.47C456.7 592.47 453.81 581.34 461.7 580.35C466.312 579.82 470.711 578.119 474.48 575.41L487.37 571.45Z" fill="#69B9EB"/>
<path id="Vector_37" d="M501.9 576.48C499.606 577.427 497.612 578.978 496.13 580.967C494.647 582.957 493.731 585.311 493.48 587.78L492.99 592.47H513.77V576.47L501.9 576.48Z" fill="#69B9EB"/>
<path id="Vector_38" d="M501.9 576.48C499.606 577.427 497.612 578.978 496.13 580.967C494.647 582.957 493.731 585.311 493.48 587.78L492.99 592.47H513.77V576.47L501.9 576.48Z" fill="url(#paint16_linear)"/>
</g>
</g>
<g id="back-drop">
<path id="Vector_39" opacity="0.18" d="M611.37 439.22C605.44 507.55 417.45 485.66 282.26 457.96C147.07 430.26 35.53 485.66 9.81 439.22C-1.58 418.66 6 393 18.06 370.74C22.6438 373.299 27.8103 374.632 33.06 374.61H600.3C608.11 393 613.48 415 611.37 439.22Z" fill="#69B9EB"/>
<path id="Vector_40" opacity="0.18" d="M120.13 36.19C120.13 36.19 248.49 -45.24 412.87 36.19H120.13Z" fill="#69B9EB"/>
</g>
</g>
<defs>
<linearGradient id="paint0_linear" x1="0" y1="205.4" x2="633.9" y2="205.4" gradientUnits="userSpaceOnUse">
<stop stop-color="#69B9EB"/>
<stop offset="1" stop-color="#69B9EB"/>
</linearGradient>
<linearGradient id="paint1_linear" x1="-90.39" y1="120.92" x2="874.21" y2="317.8" gradientUnits="userSpaceOnUse">
<stop stop-color="white" stop-opacity="0"/>
<stop offset="1" stop-color="white"/>
</linearGradient>
<linearGradient id="paint2_linear" x1="-54.14" y1="56.9" x2="1078.7" y2="33.99" gradientUnits="userSpaceOnUse">
<stop stop-opacity="0"/>
<stop offset="0.91" stop-opacity="0.8"/>
<stop offset="1"/>
</linearGradient>
<linearGradient id="paint3_linear" x1="28249.3" y1="30263.4" x2="10720.8" y2="36877.6" gradientUnits="userSpaceOnUse">
<stop stop-opacity="0"/>
<stop offset="0.91" stop-opacity="0.8"/>
<stop offset="1"/>
</linearGradient>
<linearGradient id="paint4_linear" x1="7881.57" y1="4339.5" x2="6234.97" y2="13419.3" gradientUnits="userSpaceOnUse">
<stop stop-opacity="0"/>
<stop offset="0.91" stop-opacity="0.8"/>
<stop offset="1"/>
</linearGradient>
<linearGradient id="paint5_linear" x1="11352.6" y1="18718.2" x2="13185.1" y2="15079.4" gradientUnits="userSpaceOnUse">
<stop stop-opacity="0"/>
<stop offset="0.91" stop-opacity="0.8"/>
<stop offset="1"/>
</linearGradient>
<linearGradient id="paint6_linear" x1="16645.9" y1="22132.1" x2="14984" y2="17563.2" gradientUnits="userSpaceOnUse">
<stop stop-opacity="0"/>
<stop offset="0.91" stop-opacity="0.8"/>
<stop offset="1"/>
</linearGradient>
<linearGradient id="paint7_linear" x1="6743.98" y1="1885.55" x2="6398.75" y2="5623.47" gradientUnits="userSpaceOnUse">
<stop stop-opacity="0"/>
<stop offset="0.91" stop-opacity="0.8"/>
<stop offset="1"/>
</linearGradient>
<linearGradient id="paint8_linear" x1="425.17" y1="273.89" x2="675.82" y2="509.88" gradientUnits="userSpaceOnUse">
<stop stop-opacity="0"/>
<stop offset="0.02" stop-color="#030304" stop-opacity="0.04"/>
<stop offset="0.18" stop-color="#181821" stop-opacity="0.39"/>
<stop offset="0.35" stop-color="#292839" stop-opacity="0.66"/>
<stop offset="0.53" stop-color="#363449" stop-opacity="0.85"/>
<stop offset="0.73" stop-color="#3D3B53" stop-opacity="0.96"/>
<stop offset="0.99" stop-color="#3F3D56"/>
</linearGradient>
<linearGradient id="paint9_linear" x1="20520.8" y1="44721.9" x2="13372.3" y2="45467.7" gradientUnits="userSpaceOnUse">
<stop stop-opacity="0"/>
<stop offset="0.91" stop-opacity="0.8"/>
<stop offset="1"/>
</linearGradient>
<linearGradient id="paint10_linear" x1="382.41" y1="313.15" x2="412.86" y2="313.15" gradientUnits="userSpaceOnUse">
<stop stop-color="#ECC4D7"/>
<stop offset="0.42" stop-color="#EFD4D1"/>
<stop offset="1" stop-color="#F2EAC9"/>
</linearGradient>
<linearGradient id="paint11_linear" x1="28725.5" y1="2132.07" x2="28725.6" y2="2077.44" gradientUnits="userSpaceOnUse">
<stop stop-opacity="0"/>
<stop offset="0.91" stop-opacity="0.8"/>
<stop offset="1"/>
</linearGradient>
<linearGradient id="paint12_linear" x1="8543.06" y1="18888.6" x2="8994.05" y2="18885.4" gradientUnits="userSpaceOnUse">
<stop stop-color="#ECC4D7"/>
<stop offset="0.42" stop-color="#EFD4D1"/>
<stop offset="1" stop-color="#F2EAC9"/>
</linearGradient>
<linearGradient id="paint13_linear" x1="18696.3" y1="20914.2" x2="18496.9" y2="20984.6" gradientUnits="userSpaceOnUse">
<stop stop-color="#ECC4D7"/>
<stop offset="0.42" stop-color="#EFD4D1"/>
<stop offset="1" stop-color="#F2EAC9"/>
</linearGradient>
<linearGradient id="paint14_linear" x1="35907.5" y1="23641.5" x2="32028.8" y2="21692.4" gradientUnits="userSpaceOnUse">
<stop stop-color="white" stop-opacity="0"/>
<stop offset="1" stop-color="white"/>
</linearGradient>
<linearGradient id="paint15_linear" x1="17269.8" y1="-522.28" x2="17322.6" y2="-126.862" gradientUnits="userSpaceOnUse">
<stop stop-opacity="0"/>
<stop offset="0.91" stop-opacity="0.8"/>
<stop offset="1"/>
</linearGradient>
<linearGradient id="paint16_linear" x1="10926.4" y1="-317.03" x2="10966.3" y2="-10.3683" gradientUnits="userSpaceOnUse">
<stop stop-opacity="0"/>
<stop offset="0.91" stop-opacity="0.8"/>
<stop offset="1"/>
</linearGradient>
<clipPath id="clip0">
<rect width="635.4" height="597.01" fill="white"/>
</clipPath>
</defs>
</svg>
